<?xml version="1.0" encoding="UTF-8" standalone="no"?>
<!DOCTYPE svg PUBLIC "-//W3C//DTD SVG 1.1//EN" "http://www.w3.org/Graphics/SVG/1.1/DTD/svg11.dtd"><svg width="369px"
    height="96px" viewBox="0 0 89 24" version="1.1" xmlns="http://www.w3.org/2000/svg"
    xmlns:xlink="http://www.w3.org/1999/xlink" xml:space="preserve" xmlns:serif="http://www.serif.com/"
    style="fill-rule:evenodd;clip-rule:evenodd;stroke-linejoin:round;stroke-miterlimit:2;">
    <rect id="logo" x="0" y="0" width="88.56" height="23.04" style="fill:none;" />
    <g>
        <path
            d="M5.717,18.999l-3.438,0c-0.059,0 -0.089,-0.054 -0.089,-0.163c0,-0.108 0.01,-0.174 0.031,-0.195c0.021,-0.022 0.049,-0.043 0.085,-0.065c0.036,-0.022 0.083,-0.071 0.14,-0.149c0.057,-0.077 0.117,-0.22 0.181,-0.428c0.064,-0.208 0.096,-0.417 0.096,-0.628l0,-11.974c0,-0.452 -0.109,-0.827 -0.328,-1.125c-0.018,-0.025 -0.057,-0.056 -0.116,-0.093c-0.059,-0.037 -0.089,-0.115 -0.089,-0.232c0,-0.118 0.03,-0.177 0.089,-0.177l3.097,0c1.112,0 2.176,0.409 3.192,1.227c0.72,0.583 1.317,1.405 1.791,2.468c0.474,1.063 0.711,2.354 0.711,3.872c0,0.967 -0.132,1.911 -0.396,2.831c-0.264,0.92 -0.625,1.737 -1.083,2.45c-0.458,0.713 -1.025,1.288 -1.702,1.725c-0.677,0.437 -1.4,0.655 -2.17,0.655Zm-1.668,-1.804c0,0.229 0.139,0.344 0.417,0.344l0.766,0c1.85,-0.006 3.135,-0.865 3.855,-2.575c0.419,-0.998 0.629,-2.206 0.629,-3.626c0,-1.729 -0.351,-3.158 -1.053,-4.286c-0.351,-0.564 -0.818,-1.006 -1.401,-1.325c-0.583,-0.319 -1.256,-0.479 -2.017,-0.479l-1.053,0c-0.036,0 -0.069,0.019 -0.099,0.056c-0.03,0.037 -0.044,0.084 -0.044,0.139l0,11.751Z"
            style="fill:#fff;fill-rule:nonzero;" />
        <path
            d="M13.05,11.59c-0.296,0.254 -0.515,0.587 -0.656,0.999c-0.141,0.412 -0.212,0.934 -0.212,1.567c0,0.632 0.129,1.264 0.386,1.897c0.257,0.632 0.611,1.133 1.06,1.501c0.449,0.369 0.896,0.553 1.34,0.553c0.444,0 0.807,-0.136 1.087,-0.409c0.28,-0.273 0.494,-0.626 0.643,-1.06c0.148,-0.434 0.222,-0.911 0.222,-1.432c0,-1.097 -0.256,-2.039 -0.769,-2.826c-0.513,-0.787 -1.2,-1.181 -2.061,-1.181c-0.396,0 -0.743,0.13 -1.039,0.39Zm-0.848,6.275c-0.301,-0.397 -0.543,-0.874 -0.728,-1.432c-0.185,-0.558 -0.277,-1.218 -0.277,-1.98c0,-0.762 0.144,-1.503 0.431,-2.222c0.287,-0.719 0.7,-1.28 1.237,-1.683c0.538,-0.403 1.096,-0.604 1.675,-0.604c1.057,0 1.898,0.451 2.522,1.353c0.624,0.902 0.938,1.997 0.94,3.286c0.002,1.289 -0.327,2.375 -0.988,3.259c-0.661,0.883 -1.495,1.325 -2.502,1.325c-0.428,0 -0.844,-0.118 -1.248,-0.353c-0.403,-0.236 -0.758,-0.552 -1.063,-0.948Z"
            style="fill:#fff;fill-rule:nonzero;" />
        <path
            d="M23.898,16.591c0.073,-0.099 0.205,-0.019 0.396,0.242c0.014,0.019 0.011,0.046 -0.007,0.084c-0.798,1.5 -1.755,2.25 -2.871,2.25c-0.433,0 -0.852,-0.118 -1.258,-0.353c-0.834,-0.496 -1.429,-1.289 -1.784,-2.38c-0.182,-0.558 -0.273,-1.219 -0.273,-1.985c0,-0.765 0.142,-1.503 0.427,-2.213c0.285,-0.71 0.697,-1.269 1.237,-1.678c0.54,-0.409 1.184,-0.614 1.931,-0.614c0.747,0 1.388,0.363 1.921,1.088c0.005,0.006 0.048,0.046 0.13,0.121c0.009,0.012 0.009,0.046 0,0.102l-0.369,1.562c-0.023,0.093 -0.05,0.144 -0.082,0.153c-0.032,0.009 -0.089,-0.005 -0.171,-0.042c-0.082,-0.037 -0.128,-0.068 -0.137,-0.093c-0.009,-0.025 -0.026,-0.175 -0.051,-0.451c-0.025,-0.276 -0.111,-0.507 -0.256,-0.693c-0.374,-0.483 -0.852,-0.725 -1.436,-0.725c-0.406,0 -0.777,0.147 -1.114,0.442c-0.337,0.294 -0.596,0.669 -0.776,1.125c-0.18,0.456 -0.27,0.996 -0.27,1.622c0,0.626 0.123,1.227 0.369,1.804c0.246,0.576 0.578,1.018 0.995,1.325c0.417,0.307 0.857,0.459 1.319,0.456c0.463,-0.003 0.859,-0.095 1.189,-0.274c0.33,-0.18 0.644,-0.471 0.94,-0.874Z"
            style="fill:#fff;fill-rule:nonzero;" />
        <path
            d="M24.751,11.692l0.007,-0.167c0,-0.019 0.161,-0.203 0.482,-0.553c0.321,-0.35 0.598,-0.628 0.831,-0.832l0.335,0c0.027,0.037 0.041,0.133 0.041,0.288l0,5.68c0,0.39 0.091,0.738 0.273,1.041c0.365,0.595 0.88,0.893 1.545,0.893c0.456,0 0.968,-0.205 1.538,-0.614l0.301,-0.214l0,-5.745c0,-0.452 -0.112,-0.738 -0.335,-0.855c-0.059,-0.031 -0.107,-0.062 -0.144,-0.093c-0.036,-0.031 -0.055,-0.102 -0.055,-0.214c0,-0.112 0.03,-0.167 0.089,-0.167l1.538,0c0.027,0 0.041,1.007 0.041,3.021l-0.007,3.644c0,0.347 0.077,0.614 0.232,0.8c0.036,0.043 0.096,0.068 0.178,0.074c0.082,0.006 0.136,0.023 0.161,0.051c0.025,0.028 0.039,0.099 0.041,0.214c0.002,0.115 -0.008,0.181 -0.031,0.2l-1.333,0.948c-0.018,0.019 -0.077,0.028 -0.178,0.028c-0.1,0 -0.16,-0.012 -0.178,-0.037c-0.018,-0.025 -0.027,-0.108 -0.027,-0.251l0,-0.809c-0.005,0 -0.041,0.034 -0.109,0.102c-0.852,0.762 -1.568,1.144 -2.146,1.144c-0.387,0 -0.777,-0.135 -1.169,-0.404c-0.392,-0.27 -0.715,-0.634 -0.971,-1.092c-0.255,-0.459 -0.383,-0.936 -0.383,-1.432l0,-3.728c0,-0.26 -0.036,-0.448 -0.109,-0.562c-0.073,-0.115 -0.153,-0.174 -0.239,-0.177c-0.087,-0.003 -0.141,-0.017 -0.164,-0.042c-0.036,-0.037 -0.055,-0.084 -0.055,-0.139Z"
            style="fill:#fff;fill-rule:nonzero;" />
        <path
            d="M32.241,11.692l0.007,-0.167c0,-0.031 0.013,-0.057 0.038,-0.079c0.025,-0.022 0.04,-0.036 0.044,-0.042l1.23,-1.236c0.018,-0.019 0.068,-0.028 0.15,-0.028c0.082,0 0.139,0.014 0.171,0.042c0.032,0.028 0.048,0.11 0.048,0.246l0,0.688c0.829,-0.713 1.586,-1.069 2.27,-1.069c0.314,0 0.606,0.108 0.875,0.325c0.269,0.217 0.485,0.514 0.649,0.893c1.691,-1.475 2.939,-1.611 3.746,-0.409c0.36,0.533 0.54,1.181 0.54,1.943l0,4.974c0,0.136 0.027,0.28 0.082,0.432c0.055,0.152 0.144,0.262 0.267,0.33c0.123,0.068 0.185,0.136 0.185,0.205c0,0.174 -0.03,0.26 -0.089,0.26l-2.003,0c-0.059,0 -0.089,-0.056 -0.089,-0.167c0,-0.112 0.019,-0.183 0.058,-0.214c0.039,-0.031 0.087,-0.062 0.144,-0.093c0.057,-0.031 0.105,-0.071 0.144,-0.121c0.039,-0.05 0.072,-0.105 0.099,-0.167c0.027,-0.062 0.047,-0.133 0.058,-0.214c0.011,-0.081 0.018,-0.141 0.021,-0.181c0.002,-0.04 0.002,-0.119 0,-0.237c-0.002,-0.118 -0.003,-0.195 -0.003,-0.232l0,-4.342c-0.005,-0.607 -0.093,-1.052 -0.267,-1.334c-0.173,-0.282 -0.451,-0.423 -0.834,-0.423c-0.611,0 -1.226,0.211 -1.846,0.632c0.064,0.291 0.096,0.589 0.096,0.893l0,4.974c0,0.136 0.027,0.28 0.082,0.432c0.055,0.152 0.144,0.262 0.267,0.33c0.123,0.068 0.185,0.136 0.185,0.205c0,0.174 -0.03,0.26 -0.089,0.26l-2.01,0c-0.059,0 -0.089,-0.056 -0.089,-0.167c0,-0.112 0.019,-0.183 0.058,-0.214c0.039,-0.031 0.087,-0.062 0.144,-0.093c0.057,-0.031 0.105,-0.071 0.144,-0.121c0.039,-0.05 0.072,-0.104 0.099,-0.163c0.027,-0.059 0.048,-0.132 0.062,-0.218c0.014,-0.087 0.022,-0.146 0.024,-0.177c0.002,-0.031 0.002,-0.112 0,-0.242c-0.002,-0.13 -0.003,-0.208 -0.003,-0.232l0,-4.342c-0.005,-0.614 -0.092,-1.06 -0.263,-1.339c-0.171,-0.279 -0.506,-0.418 -1.005,-0.418c-0.499,0 -1.068,0.217 -1.706,0.651l0,5.848c0,0.136 0.024,0.28 0.072,0.432c0.048,0.152 0.136,0.262 0.263,0.33c0.128,0.068 0.191,0.136 0.191,0.205c0,0.174 -0.03,0.26 -0.089,0.26l-2.01,0c-0.059,0 -0.089,-0.056 -0.089,-0.167c0,-0.112 0.019,-0.183 0.058,-0.214c0.039,-0.031 0.087,-0.062 0.144,-0.093c0.057,-0.031 0.103,-0.07 0.137,-0.116c0.034,-0.046 0.065,-0.099 0.092,-0.158c0.027,-0.059 0.048,-0.108 0.062,-0.149c0.014,-0.04 0.024,-0.099 0.031,-0.177c0.007,-0.077 0.011,-0.13 0.014,-0.158c0.002,-0.028 0.002,-0.093 0,-0.195c-0.002,-0.102 -0.003,-0.169 -0.003,-0.2l0,-4.918c-0.014,-0.366 -0.125,-0.555 -0.335,-0.567c-0.146,-0.006 -0.221,-0.071 -0.226,-0.195Z"
            style="fill:#fff;fill-rule:nonzero;" />
        <path
            d="M47.607,12.538c-0.269,-1.047 -0.85,-1.571 -1.743,-1.571c-0.406,0 -0.777,0.147 -1.114,0.442c-0.337,0.294 -0.596,0.669 -0.776,1.125c-0.18,0.456 -0.27,0.885 -0.27,1.288c0,0.403 0.009,0.601 0.027,0.595l3.862,-1.831l0,-0.056l0.014,0.009Zm-3.726,2.863c0.196,0.731 0.526,1.305 0.991,1.72c0.465,0.415 0.993,0.623 1.586,0.623c0.752,0 1.438,-0.48 2.058,-1.441c0.096,-0.124 0.237,-0.059 0.424,0.195c0.014,0.019 0.011,0.046 -0.007,0.084c-0.52,0.979 -0.923,1.605 -1.21,1.878c-0.488,0.471 -1.05,0.707 -1.688,0.707c-0.433,0 -0.852,-0.118 -1.258,-0.353c-0.834,-0.496 -1.429,-1.289 -1.784,-2.38c-0.182,-0.558 -0.273,-1.219 -0.273,-1.985c0,-0.765 0.142,-1.503 0.427,-2.213c0.285,-0.71 0.697,-1.269 1.237,-1.678c0.54,-0.409 1.161,-0.614 1.863,-0.614c0.857,0 1.618,0.539 2.283,1.618c0.337,0.545 0.506,0.979 0.506,1.302l-5.154,2.538Z"
            style="fill:#fff;fill-rule:nonzero;" />
        <path
            d="M49.54,18.999c-0.059,0 -0.089,-0.056 -0.089,-0.167c0,-0.112 0.019,-0.183 0.058,-0.214c0.039,-0.031 0.087,-0.062 0.144,-0.093c0.057,-0.031 0.101,-0.068 0.133,-0.112c0.141,-0.192 0.211,-0.408 0.208,-0.646c-0.002,-0.239 -0.003,-0.37 -0.003,-0.395l0,-4.918c0,-0.198 -0.036,-0.341 -0.109,-0.428c-0.073,-0.087 -0.15,-0.133 -0.232,-0.139c-0.082,-0.006 -0.136,-0.023 -0.161,-0.051c-0.025,-0.028 -0.041,-0.054 -0.048,-0.079c-0.007,-0.025 -0.011,-0.046 -0.014,-0.065c-0.002,-0.019 -0.002,-0.046 0,-0.084c0.002,-0.037 0.003,-0.065 0.003,-0.084c0,-0.019 0.003,-0.034 0.01,-0.046c0.007,-0.012 0.019,-0.026 0.038,-0.042c0.018,-0.015 0.03,-0.026 0.034,-0.033l1.23,-1.236c0.018,-0.019 0.068,-0.028 0.15,-0.028c0.082,0 0.141,0.014 0.178,0.042c0.036,0.028 0.055,0.11 0.055,0.246l0,0.688l0.349,-0.279l0.205,-0.139c0.633,-0.434 1.226,-0.651 1.777,-0.651c0.551,0 1.094,0.267 1.627,0.8c0.242,0.242 0.439,0.535 0.591,0.879c0.153,0.344 0.229,0.702 0.229,1.074l0,4.974c0,0.136 0.027,0.28 0.082,0.432c0.055,0.152 0.144,0.262 0.267,0.33c0.123,0.068 0.185,0.136 0.185,0.205c0,0.174 -0.03,0.26 -0.089,0.26l-2.003,0c-0.059,0 -0.089,-0.056 -0.089,-0.167c0,-0.112 0.019,-0.183 0.058,-0.214c0.039,-0.031 0.087,-0.062 0.144,-0.093c0.057,-0.031 0.105,-0.071 0.144,-0.121c0.039,-0.05 0.072,-0.105 0.099,-0.167c0.027,-0.062 0.047,-0.135 0.058,-0.218c0.011,-0.084 0.018,-0.146 0.021,-0.186c0.002,-0.04 0.002,-0.118 0,-0.232c-0.002,-0.115 -0.003,-0.191 -0.003,-0.228l0,-4.342c0,-0.372 -0.091,-0.697 -0.273,-0.976c-0.351,-0.521 -0.843,-0.781 -1.477,-0.781c-0.633,0 -1.269,0.217 -1.907,0.651l0,5.848c0,0.136 0.027,0.28 0.082,0.432c0.055,0.152 0.144,0.262 0.267,0.33c0.123,0.068 0.185,0.136 0.185,0.205c0,0.174 -0.03,0.26 -0.089,0.26l-2.023,0Z"
            style="fill:#fff;fill-rule:nonzero;" />
        <path
            d="M57.667,8.485c0.014,-0.124 0.097,-0.186 0.25,-0.186c0.153,0 0.229,0.062 0.229,0.186l0,1.655l1.21,0c0.232,0 0.349,0.04 0.349,0.121l0,0.818c0,0.081 -0.116,0.121 -0.349,0.121l-1.21,0l0,5.773c0,0.738 0.16,1.15 0.479,1.236c0.242,0.068 0.492,-0.056 0.752,-0.372c0.105,-0.13 0.179,-0.161 0.222,-0.093c0.043,0.068 0.074,0.121 0.092,0.158c0.018,0.037 0.027,0.073 0.027,0.107l0,0.079c0.005,0.031 -0.021,0.084 -0.075,0.158l-0.144,0.167c-0.474,0.558 -0.935,0.812 -1.384,0.762c-0.449,-0.05 -0.764,-0.406 -0.947,-1.069c-0.1,-0.359 -0.15,-0.796 -0.15,-1.311l0,-5.597l-0.314,0c-0.232,0 -0.349,-0.04 -0.349,-0.121l0,-0.818c0,-0.081 0.096,-0.121 0.287,-0.121c0.337,0 0.58,-0.161 0.728,-0.483c0.148,-0.322 0.247,-0.713 0.297,-1.171Z"
            style="fill:#fff;fill-rule:nonzero;" />
        <path
            d="M60.618,16.647c0,0.415 0.132,0.727 0.396,0.934c0.264,0.208 0.533,0.311 0.807,0.311c0.273,0 0.477,-0.015 0.612,-0.046c0.134,-0.031 0.272,-0.087 0.414,-0.167c0.264,-0.149 0.499,-0.304 0.704,-0.465c0,0 0.107,-0.081 0.321,-0.242l-0.396,-2.473c-0.164,0.087 -0.367,0.183 -0.608,0.288l-0.656,0.279c-1.062,0.434 -1.593,0.961 -1.593,1.58Zm2.728,-3.105c-0.137,-1.698 -0.499,-2.547 -1.087,-2.547c-0.36,0 -0.673,0.175 -0.94,0.525c-0.267,0.35 -0.4,0.761 -0.4,1.232l0.062,0.381c0,0.05 -0.044,0.127 -0.133,0.232c-0.089,0.105 -0.149,0.139 -0.181,0.102l-0.793,-1.385c0,-0.081 0.051,-0.17 0.154,-0.27c0.103,-0.099 0.19,-0.198 0.263,-0.297l0.164,-0.214c0.237,-0.322 0.403,-0.527 0.499,-0.614l0.335,-0.297c0.328,-0.291 0.693,-0.437 1.094,-0.437c0.588,0 1.035,0.217 1.34,0.651c0.21,0.298 0.355,0.59 0.437,0.879c0.082,0.288 0.141,0.522 0.178,0.702c0.077,0.384 0.141,0.831 0.191,1.339l0.075,0.716c0.027,0.285 0.056,0.552 0.085,0.8c0.03,0.248 0.049,0.417 0.058,0.507c0.009,0.09 0.032,0.248 0.068,0.474c0.036,0.226 0.071,0.414 0.103,0.562c0.096,0.44 0.207,0.77 0.335,0.99c0.128,0.22 0.27,0.33 0.427,0.33c0.157,0 0.268,-0.062 0.332,-0.186c0.118,-0.236 0.205,-0.353 0.26,-0.353c0.027,0 0.073,0.043 0.137,0.13c0.064,0.087 0.096,0.152 0.096,0.195c0,0.043 -0.072,0.187 -0.215,0.432c-0.144,0.245 -0.305,0.485 -0.485,0.721c-0.18,0.236 -0.309,0.353 -0.386,0.353c-0.292,0 -0.569,-0.156 -0.831,-0.469c-0.262,-0.313 -0.423,-0.643 -0.482,-0.99c-0.15,0.186 -0.406,0.412 -0.766,0.679c-0.711,0.521 -1.281,0.781 -1.709,0.781c-0.428,0 -0.79,-0.084 -1.083,-0.251c-0.294,-0.167 -0.538,-0.425 -0.731,-0.772c-0.194,-0.347 -0.291,-0.71 -0.291,-1.088c0,-0.378 0.039,-0.694 0.116,-0.948c0.077,-0.254 0.178,-0.473 0.301,-0.655c0.123,-0.183 0.276,-0.353 0.458,-0.511c0.182,-0.158 0.367,-0.29 0.554,-0.395c0.392,-0.217 0.826,-0.411 1.302,-0.581c0.476,-0.17 0.84,-0.321 1.09,-0.451Z"
            style="fill:#fff;fill-rule:nonzero;" />
        <path
            d="M67.549,8.485c0.014,-0.124 0.097,-0.186 0.25,-0.186c0.153,0 0.229,0.062 0.229,0.186l0,1.655l1.21,0c0.232,0 0.349,0.04 0.349,0.121l0,0.818c0,0.081 -0.116,0.121 -0.349,0.121l-1.21,0l0,5.773c0,0.738 0.16,1.15 0.479,1.236c0.242,0.068 0.492,-0.056 0.752,-0.372c0.105,-0.13 0.179,-0.161 0.222,-0.093c0.043,0.068 0.074,0.121 0.092,0.158c0.018,0.037 0.027,0.073 0.027,0.107l0,0.079c0.005,0.031 -0.021,0.084 -0.075,0.158l-0.144,0.167c-0.474,0.558 -0.935,0.812 -1.384,0.762c-0.449,-0.05 -0.764,-0.406 -0.947,-1.069c-0.1,-0.359 -0.15,-0.796 -0.15,-1.311l0,-5.597l-0.314,0c-0.232,0 -0.349,-0.04 -0.349,-0.121l0,-0.818c0,-0.081 0.096,-0.121 0.287,-0.121c0.337,0 0.58,-0.161 0.728,-0.483c0.148,-0.322 0.247,-0.713 0.297,-1.171Z"
            style="fill:#fff;fill-rule:nonzero;" />
        <path
            d="M71.334,5.51l0,0.753c0,0.062 -0.011,0.105 -0.034,0.13c-0.023,0.025 -0.12,0.081 -0.291,0.167c-0.171,0.087 -0.297,0.158 -0.379,0.214c-0.082,0.056 -0.152,0.096 -0.208,0.121c-0.057,0.025 -0.092,0.026 -0.106,0.005c-0.014,-0.022 -0.021,-0.141 -0.021,-0.358l0,-0.883c0,-0.019 -0.001,-0.046 -0.003,-0.084c-0.002,-0.037 -0.002,-0.062 0,-0.074c0.002,-0.012 0.005,-0.031 0.007,-0.056c0.002,-0.025 0.013,-0.05 0.031,-0.074c0.018,-0.025 0.113,-0.081 0.284,-0.167c0.171,-0.087 0.297,-0.158 0.379,-0.214c0.187,-0.118 0.291,-0.163 0.311,-0.135c0.021,0.028 0.031,0.246 0.031,0.655Zm-1.559,13.49c-0.059,0 -0.089,-0.056 -0.089,-0.167c0,-0.112 0.018,-0.183 0.055,-0.214c0.036,-0.031 0.084,-0.062 0.144,-0.093c0.223,-0.124 0.337,-0.421 0.342,-0.893l0,-5.178c0,-0.198 -0.036,-0.341 -0.109,-0.428c-0.073,-0.087 -0.15,-0.133 -0.232,-0.139c-0.082,-0.006 -0.139,-0.025 -0.171,-0.056c-0.032,-0.031 -0.048,-0.095 -0.048,-0.191c0,-0.096 0.003,-0.15 0.01,-0.163c0.007,-0.012 0.019,-0.026 0.038,-0.042c0.018,-0.015 0.03,-0.026 0.034,-0.033l1.23,-1.236c0.032,-0.031 0.057,-0.039 0.075,-0.023c0.018,0.015 0.073,0.042 0.164,0.079c0.091,0.037 0.137,0.105 0.137,0.205l0,7.242c0,0.452 0.112,0.738 0.335,0.855c0.132,0.074 0.198,0.146 0.198,0.214c0,0.174 -0.03,0.26 -0.089,0.26l-2.023,0Z"
            style="fill:#fff;fill-rule:nonzero;" />
        <path
            d="M74.102,11.59c-0.296,0.254 -0.515,0.587 -0.656,0.999c-0.141,0.412 -0.212,0.934 -0.212,1.567c0,0.632 0.129,1.264 0.386,1.897c0.257,0.632 0.611,1.133 1.06,1.501c0.449,0.369 0.896,0.553 1.34,0.553c0.444,0 0.807,-0.136 1.087,-0.409c0.28,-0.273 0.494,-0.626 0.643,-1.06c0.148,-0.434 0.222,-0.911 0.222,-1.432c0,-1.097 -0.256,-2.039 -0.769,-2.826c-0.513,-0.787 -1.2,-1.181 -2.061,-1.181c-0.396,0 -0.743,0.13 -1.039,0.39Zm-0.848,6.275c-0.301,-0.397 -0.543,-0.874 -0.728,-1.432c-0.185,-0.558 -0.277,-1.218 -0.277,-1.98c0,-0.762 0.144,-1.503 0.431,-2.222c0.287,-0.719 0.7,-1.28 1.237,-1.683c0.538,-0.403 1.096,-0.604 1.675,-0.604c1.057,0 1.898,0.451 2.522,1.353c0.624,0.902 0.938,1.997 0.94,3.286c0.002,1.289 -0.327,2.375 -0.988,3.259c-0.661,0.883 -1.495,1.325 -2.502,1.325c-0.428,0 -0.844,-0.118 -1.248,-0.353c-0.403,-0.236 -0.758,-0.552 -1.063,-0.948Z"
            style="fill:#fff;fill-rule:nonzero;" />
        <path
            d="M79.473,18.999c-0.059,0 -0.089,-0.056 -0.089,-0.167c0,-0.112 0.019,-0.183 0.058,-0.214c0.039,-0.031 0.087,-0.062 0.144,-0.093c0.057,-0.031 0.101,-0.068 0.133,-0.112c0.141,-0.192 0.211,-0.408 0.208,-0.646c-0.002,-0.239 -0.003,-0.37 -0.003,-0.395l0,-4.918c0,-0.198 -0.036,-0.341 -0.109,-0.428c-0.073,-0.087 -0.15,-0.133 -0.232,-0.139c-0.082,-0.006 -0.136,-0.023 -0.161,-0.051c-0.025,-0.028 -0.041,-0.054 -0.048,-0.079c-0.007,-0.025 -0.011,-0.046 -0.014,-0.065c-0.002,-0.019 -0.002,-0.046 0,-0.084c0.002,-0.037 0.003,-0.065 0.003,-0.084c0,-0.019 0.003,-0.034 0.01,-0.046c0.007,-0.012 0.019,-0.026 0.038,-0.042c0.018,-0.015 0.03,-0.026 0.034,-0.033l1.23,-1.236c0.018,-0.019 0.068,-0.028 0.15,-0.028c0.082,0 0.141,0.014 0.178,0.042c0.036,0.028 0.055,0.11 0.055,0.246l0,0.688l0.349,-0.279l0.205,-0.139c0.633,-0.434 1.226,-0.651 1.777,-0.651c0.551,0 1.094,0.267 1.627,0.8c0.242,0.242 0.439,0.535 0.591,0.879c0.153,0.344 0.229,0.702 0.229,1.074l0,4.974c0,0.136 0.027,0.28 0.082,0.432c0.055,0.152 0.144,0.262 0.267,0.33c0.123,0.068 0.185,0.136 0.185,0.205c0,0.174 -0.03,0.26 -0.089,0.26l-2.003,0c-0.059,0 -0.089,-0.056 -0.089,-0.167c0,-0.112 0.019,-0.183 0.058,-0.214c0.039,-0.031 0.087,-0.062 0.144,-0.093c0.057,-0.031 0.105,-0.071 0.144,-0.121c0.039,-0.05 0.072,-0.105 0.099,-0.167c0.027,-0.062 0.047,-0.135 0.058,-0.218c0.011,-0.084 0.018,-0.146 0.021,-0.186c0.002,-0.04 0.002,-0.118 0,-0.232c-0.002,-0.115 -0.003,-0.191 -0.003,-0.228l0,-4.342c0,-0.372 -0.091,-0.697 -0.273,-0.976c-0.351,-0.521 -0.843,-0.781 -1.477,-0.781c-0.633,0 -1.269,0.217 -1.907,0.651l0,5.848c0,0.136 0.027,0.28 0.082,0.432c0.055,0.152 0.144,0.262 0.267,0.33c0.123,0.068 0.185,0.136 0.185,0.205c0,0.174 -0.03,0.26 -0.089,0.26l-2.023,0Z"
            style="fill:#fff;fill-rule:nonzero;" />
    </g>
</svg>