<?xml version="1.0" encoding="UTF-8" standalone="no"?><!DOCTYPE svg PUBLIC "-//W3C//DTD SVG 1.1//EN" "http://www.w3.org/Graphics/SVG/1.1/DTD/svg11.dtd"><svg width="369px" height="96px" version="1.1" xmlns="http://www.w3.org/2000/svg" xmlns:xlink="http://www.w3.org/1999/xlink" xml:space="preserve" xmlns:serif="http://www.serif.com/" style="fill-rule:evenodd;clip-rule:evenodd;stroke-linecap:round;stroke-linejoin:round;stroke-miterlimit:1.5;"><rect id="logo" x="0" y="0" width="369" height="96" style="fill:none;"/><path d="M86.229,38.605l0,18.79" style="fill:none;stroke:#fff;stroke-width:1px;"/><path d="M105.562,90.218c-3.132,0 -5.615,-0.813 -7.449,-2.44c-1.834,-1.627 -2.751,-3.864 -2.751,-6.711l0,-76.261l40.937,0c6.8,0 12.773,1.179 17.918,3.538c5.145,2.359 9.127,5.714 11.945,10.066c2.819,4.352 4.228,9.334 4.228,14.947l0,25.868c0,10.168 -2.841,17.876 -8.523,23.122c-5.682,5.247 -14.026,7.87 -25.032,7.87l-31.273,0Zm30.87,-10.371c6.979,0 12.259,-1.749 15.838,-5.247c3.579,-3.498 5.369,-8.704 5.369,-15.618l0,-25.38c0,-5.531 -1.991,-9.985 -5.973,-13.361c-3.982,-3.376 -9.239,-5.064 -15.771,-5.064l-27.783,0l0,64.669l28.32,0Z" style="fill:#fff;fill-rule:nonzero;"/><path d="M199.65,91.194c-7.874,0 -14.205,-2.156 -18.992,-6.467c-4.787,-4.311 -7.181,-9.965 -7.181,-16.96l0,-15.862c0,-7.077 2.416,-12.771 7.248,-17.082c4.832,-4.311 11.23,-6.467 19.193,-6.467l11.274,0c7.964,0 14.361,2.156 19.193,6.467c4.832,4.311 7.248,10.005 7.248,17.082l0,15.862c0,6.996 -2.438,12.649 -7.315,16.96c-4.877,4.311 -11.297,6.467 -19.26,6.467l-11.409,0Zm11.274,-10.005c4.295,0 7.74,-1.261 10.335,-3.783c2.595,-2.522 3.892,-5.897 3.892,-10.127l0,-15.008c0,-4.23 -1.275,-7.606 -3.825,-10.127c-2.55,-2.522 -5.928,-3.783 -10.134,-3.783l-11.274,0c-4.206,0 -7.583,1.261 -10.134,3.783c-2.55,2.522 -3.825,5.897 -3.825,10.127l0,15.008c0,4.23 1.253,7.606 3.758,10.127c2.505,2.522 5.861,3.783 10.066,3.783l11.14,0Z" style="fill:#fff;fill-rule:nonzero;"/><path d="M266.491,91.194c-7.695,0 -13.914,-2.095 -18.656,-6.284c-4.742,-4.189 -7.114,-9.7 -7.114,-16.533l0,-16.35c0,-7.158 2.349,-12.893 7.046,-17.204c4.698,-4.311 10.894,-6.467 18.589,-6.467l10.872,0c7.337,0 13.243,1.871 17.717,5.613c4.474,3.742 6.711,8.704 6.711,14.886l-12.348,0c0,-3.172 -1.096,-5.714 -3.288,-7.626c-2.192,-1.912 -5.123,-2.867 -8.791,-2.867l-10.738,0c-3.937,0 -7.136,1.281 -9.597,3.844c-2.461,2.562 -3.691,5.959 -3.691,10.188l0,15.618c0,3.986 1.253,7.179 3.758,9.578c2.505,2.4 5.727,3.6 9.664,3.6l10.738,0c3.758,0 6.778,-1.2 9.06,-3.6c2.282,-2.4 3.423,-5.592 3.423,-9.578l12.348,0c0,6.914 -2.282,12.507 -6.845,16.777c-4.563,4.271 -10.559,6.406 -17.985,6.406l-10.872,0Z" style="fill:#fff;fill-rule:nonzero;"/><path d="M326.755,91.194c-7.248,0 -13.064,-1.81 -17.448,-5.43c-4.384,-3.62 -6.577,-8.399 -6.577,-14.337l12.214,0c0,3.01 1.074,5.45 3.221,7.321c2.148,1.871 5.011,2.806 8.59,2.806l11.811,0c3.4,0 6.129,-0.59 8.187,-1.769c2.058,-1.179 3.087,-2.745 3.087,-4.698l0,-3.538c0,-1.302 -0.604,-2.461 -1.812,-3.477c-1.208,-1.017 -2.751,-1.688 -4.631,-2.013l-23.22,-3.661c-4.921,-0.813 -8.858,-2.501 -11.811,-5.064c-2.953,-2.562 -4.429,-5.552 -4.429,-8.968l0,-4.027c0,-4.799 2.103,-8.663 6.308,-11.592c4.206,-2.928 9.843,-4.393 16.912,-4.393l11.274,0c6.711,0 12.102,1.668 16.173,5.003c4.071,3.335 6.107,7.768 6.107,13.3l-12.214,0c-0.089,-2.603 -1.051,-4.698 -2.886,-6.284c-1.834,-1.586 -4.228,-2.379 -7.181,-2.379l-11.14,0c-3.311,0 -5.928,0.61 -7.852,1.83c-1.924,1.22 -2.886,2.847 -2.886,4.881l0,3.05c0,1.302 0.626,2.44 1.879,3.416c1.253,0.976 2.863,1.668 4.832,2.074l23.488,3.783c4.653,0.732 8.433,2.359 11.341,4.881c2.908,2.522 4.362,5.45 4.362,8.785l0,4.759c0,4.718 -2.192,8.521 -6.577,11.409c-4.384,2.888 -10.156,4.332 -17.314,4.332l-11.811,0Z" style="fill:#fff;fill-rule:nonzero;"/><path d="M43.5,13.5c19.041,0 34.5,15.459 34.5,34.5c0,19.041 -15.459,34.5 -34.5,34.5c-19.041,0 -34.5,-15.459 -34.5,-34.5c0,-19.041 15.459,-34.5 34.5,-34.5Zm0,10.105c-13.464,0 -24.395,10.931 -24.395,24.395c0,13.464 10.931,24.395 24.395,24.395c13.464,0 24.395,-10.931 24.395,-24.395c0,-13.464 -10.931,-24.395 -24.395,-24.395Z" style="fill:#fff;"/></svg>