<svg width="380.201" height="94.3" viewBox="0 0 380.201 94.3" xmlns="http://www.w3.org/2000/svg"><g id="svgGroup" stroke-linecap="round" fill-rule="evenodd" font-size="9pt" stroke="#fff" stroke-width="0.25mm" fill="#fff" style="stroke:#fff;stroke-width:0.25mm;fill:#fff"><path d="M 24.8 10.4 L 40.6 50.5 A 1.357 1.357 0 0 0 41.451 51.286 A 1.871 1.871 0 0 0 41.7 51.35 A 1.56 1.56 0 0 0 41.872 51.373 Q 42.418 51.413 42.755 51.01 A 1.439 1.439 0 0 0 42.9 50.8 L 62.6 9.8 Q 63.1 8.1 63.6 6 Q 63.944 4.556 64.193 3.349 A 58.845 58.845 0 0 0 64.4 2.3 A 3.953 3.953 0 0 1 64.539 1.826 Q 64.717 1.341 64.983 1.141 A 0.677 0.677 0 0 1 65.4 1 L 69 1 A 50.227 50.227 0 0 0 72.887 0.844 A 59.917 59.917 0 0 0 75.35 0.6 Q 78.7 0.2 80.4 0.2 A 4.367 4.367 0 0 1 80.742 0.215 Q 81.124 0.245 81.63 0.337 A 14.016 14.016 0 0 1 81.7 0.35 A 1.431 1.431 0 0 1 82.036 0.453 Q 82.465 0.651 82.497 1.121 A 1.146 1.146 0 0 1 82.5 1.2 Q 82.5 1.9 81.95 2.3 Q 81.409 2.693 79.95 3.28 A 30.739 30.739 0 0 1 79.9 3.3 Q 78.6 3.8 77 4.4 Q 75.4 5 74 5.6 A 3.795 3.795 0 0 0 72.526 6.667 A 4.663 4.663 0 0 0 72.3 6.95 A 3.601 3.601 0 0 0 71.734 8.066 A 3.272 3.272 0 0 0 71.6 9 A 348.995 348.995 0 0 0 71.698 17.418 A 287.451 287.451 0 0 0 71.85 22.15 Q 72.1 28.3 72.4 33.95 Q 72.7 39.6 73.1 45.1 Q 73.5 50.6 73.8 56.3 A 9.212 9.212 0 0 0 74.127 58.26 Q 74.504 59.567 75.284 60.508 A 5.487 5.487 0 0 0 75.8 61.05 Q 77.6 62.7 81.3 63.4 A 18.751 18.751 0 0 1 82.185 63.577 Q 83.225 63.813 83.8 64.1 A 1.968 1.968 0 0 1 84.178 64.341 Q 84.6 64.691 84.6 65.2 Q 84.6 65.742 83.947 65.998 A 2.188 2.188 0 0 1 83.8 66.05 A 4.683 4.683 0 0 1 83.161 66.197 Q 82.533 66.3 81.7 66.3 Q 79.135 66.3 77.427 66.165 A 27.839 27.839 0 0 1 77.25 66.15 Q 75.5 66 73.9 65.9 A 45.209 45.209 0 0 0 72.602 65.839 Q 71.438 65.8 70 65.8 Q 68.024 65.8 66.682 65.898 A 25.223 25.223 0 0 0 66.65 65.9 Q 65.3 66 63.75 66.15 A 25.696 25.696 0 0 1 62.669 66.229 Q 61.541 66.29 60.011 66.299 A 91.313 91.313 0 0 1 59.5 66.3 A 11.235 11.235 0 0 1 58.736 66.276 Q 57.95 66.222 57.4 66.05 A 1.857 1.857 0 0 1 57.069 65.914 Q 56.897 65.82 56.788 65.699 A 0.72 0.72 0 0 1 56.6 65.2 Q 56.6 64.5 57.4 64.05 A 3.557 3.557 0 0 1 57.98 63.796 Q 58.725 63.538 59.9 63.4 A 9.151 9.151 0 0 0 61.389 63.076 Q 62.182 62.827 62.778 62.441 A 3.833 3.833 0 0 0 63.9 61.35 Q 64.901 59.848 64.991 56.815 A 20.726 20.726 0 0 0 65 56.2 A 595.582 595.582 0 0 0 64.963 49.401 Q 64.926 46.123 64.85 43.2 Q 64.7 37.4 64.4 31.75 Q 64.1 26.1 63.8 19.4 Q 63.704 18.348 63.243 18.348 A 0.429 0.429 0 0 0 63.2 18.35 Q 62.7 18.4 62.2 19.4 L 39.2 66.3 A 0.809 0.809 0 0 1 38.685 66.776 Q 38.537 66.827 38.353 66.845 A 1.956 1.956 0 0 1 38.3 66.85 A 1.285 1.285 0 0 1 38.215 66.853 Q 37.718 66.856 37.497 66.445 A 1.228 1.228 0 0 1 37.4 66.2 Q 33.5 54.5 29.05 43.15 Q 24.6 31.8 19 18.7 A 0.954 0.954 0 0 0 18.857 18.45 Q 18.665 18.214 18.338 18.201 A 0.966 0.966 0 0 0 18.3 18.2 Q 17.88 18.2 17.743 18.552 A 0.877 0.877 0 0 0 17.7 18.7 Q 16.8 25.7 16.05 31.55 Q 15.3 37.4 14.9 43.1 Q 14.5 48.8 14.5 55.6 Q 14.5 58.3 16.2 60.55 A 7.292 7.292 0 0 0 19.976 63.145 A 9.729 9.729 0 0 0 21 63.4 A 18.751 18.751 0 0 1 21.885 63.577 Q 22.925 63.813 23.5 64.1 A 1.968 1.968 0 0 1 23.878 64.341 Q 24.3 64.691 24.3 65.2 Q 24.3 65.742 23.647 65.998 A 2.188 2.188 0 0 1 23.5 66.05 A 4.683 4.683 0 0 1 22.861 66.197 Q 22.233 66.3 21.4 66.3 Q 18.7 66.3 17.35 66.15 A 191.522 191.522 0 0 0 16.226 66.028 Q 15.712 65.974 15.251 65.929 A 110.746 110.746 0 0 0 14.95 65.9 Q 14.146 65.823 12.844 65.805 A 61.387 61.387 0 0 0 12 65.8 Q 10.517 65.8 9.576 65.868 A 13.758 13.758 0 0 0 9.2 65.9 A 122.86 122.86 0 0 0 8.268 65.997 Q 7.79 66.048 7.26 66.109 A 213.287 213.287 0 0 0 6.9 66.15 Q 5.909 66.264 4.103 66.292 A 80.264 80.264 0 0 1 2.9 66.3 A 11.235 11.235 0 0 1 2.136 66.276 Q 1.35 66.222 0.8 66.05 A 1.857 1.857 0 0 1 0.469 65.914 Q 0.297 65.82 0.188 65.699 A 0.72 0.72 0 0 1 0 65.2 A 1.071 1.071 0 0 1 0.404 64.356 Q 0.569 64.216 0.8 64.1 A 4.587 4.587 0 0 1 1.321 63.883 Q 1.901 63.678 2.753 63.504 A 20.53 20.53 0 0 1 3.3 63.4 Q 5.8 62.9 7.4 61 A 7.847 7.847 0 0 0 8.59 59.031 Q 9.219 57.569 9.5 55.6 Q 10.7 46.6 11.6 38.45 A 672.849 672.849 0 0 0 12.39 30.93 Q 12.743 27.365 13.014 24.174 A 406.718 406.718 0 0 0 13.05 23.75 Q 13.542 17.891 13.594 13.912 A 69.984 69.984 0 0 0 13.6 13 L 13.6 11.3 A 13.958 13.958 0 0 0 13.581 10.551 Q 13.556 10.094 13.5 9.7 A 15.377 15.377 0 0 0 13.272 8.367 A 17.352 17.352 0 0 0 13.2 8.05 A 2.266 2.266 0 0 0 12.872 7.316 Q 12.563 6.85 12 6.4 A 13.805 13.805 0 0 0 10.554 5.338 Q 9.51 4.677 8.5 4.35 A 23.541 23.541 0 0 0 6.898 3.897 Q 6.07 3.693 5.135 3.515 A 41.314 41.314 0 0 0 4.5 3.4 A 4.094 4.094 0 0 1 3.754 3.18 Q 3.303 2.996 2.968 2.71 A 2.524 2.524 0 0 1 2.9 2.65 A 2.068 2.068 0 0 1 2.535 2.218 A 1.524 1.524 0 0 1 2.3 1.4 A 0.982 0.982 0 0 1 2.384 0.982 Q 2.582 0.555 3.25 0.45 Q 3.888 0.349 4.775 0.316 A 24.893 24.893 0 0 1 5.7 0.3 Q 6.691 0.3 8.714 0.398 A 170.188 170.188 0 0 1 8.75 0.4 Q 10.8 0.5 13.2 0.7 Q 15.6 0.9 17.65 1 Q 19.7 1.1 20.7 1.1 Q 21.4 1.1 21.9 1.5 Q 22.365 1.872 22.571 2.591 A 3.368 3.368 0 0 1 22.6 2.7 Q 23.1 4.5 23.6 6.5 Q 24.1 8.5 24.8 10.4 Z M 218.302 67.423 A 2.021 2.021 0 0 0 218.8 67.5 Q 219.6 67.5 220.25 67.05 A 1.083 1.083 0 0 0 220.541 66.744 Q 220.789 66.362 220.866 65.676 A 6.094 6.094 0 0 0 220.9 65 A 13.333 13.333 0 0 0 220.895 64.636 Q 220.877 63.984 220.8 62.95 A 808.436 808.436 0 0 0 220.733 62.048 Q 220.697 61.567 220.656 61.028 A 1667.539 1667.539 0 0 0 220.55 59.65 Q 220.4 57.7 220.4 55.3 L 220.4 44.65 Q 220.4 38.7 220.45 32.7 Q 220.5 26.7 220.5 21.5 A 1054.065 1054.065 0 0 1 220.5 20.986 Q 220.503 16.131 220.55 12.9 Q 220.6 9.5 220.6 9 A 9.294 9.294 0 0 1 220.764 7.83 Q 220.908 7.146 221.154 6.604 A 3.646 3.646 0 0 1 222 5.4 Q 223.2 4.3 226.9 3.6 A 15.748 15.748 0 0 0 227.071 3.568 Q 228.983 3.199 229.726 2.546 A 1.235 1.235 0 0 0 230.2 1.6 A 0.72 0.72 0 0 0 230.012 1.101 Q 229.903 0.98 229.731 0.886 A 1.857 1.857 0 0 0 229.4 0.75 Q 228.85 0.578 228.064 0.524 A 11.235 11.235 0 0 0 227.3 0.5 A 152.884 152.884 0 0 0 225.968 0.505 Q 223.913 0.523 222.65 0.6 Q 221 0.7 219.6 0.75 A 58.191 58.191 0 0 1 218.889 0.771 Q 217.638 0.8 215.8 0.8 L 213.95 0.8 L 212.05 0.8 L 210.1 0.8 Q 208.8 0.8 207.4 1.05 Q 206.536 1.204 206.205 1.492 A 0.53 0.53 0 0 0 206 1.9 Q 206 2.458 206.889 2.889 A 5.14 5.14 0 0 0 207.4 3.1 A 16.825 16.825 0 0 0 208.683 3.499 A 21.063 21.063 0 0 0 210.5 3.9 A 5.685 5.685 0 0 1 211.601 4.218 Q 212.83 4.704 214.2 5.8 A 8.461 8.461 0 0 1 214.383 5.951 Q 216.205 7.494 216.3 9.4 L 216.3 22.9 Q 216.3 29.5 216.25 35.15 Q 216.2 40.8 216.15 44.75 A 1471.162 1471.162 0 0 0 216.134 46.085 Q 216.1 48.951 216.1 50.1 Q 216 52.2 215.1 52.2 A 0.977 0.977 0 0 1 214.896 52.178 Q 214.375 52.066 213.75 51.4 A 110.603 110.603 0 0 0 213.418 51.047 Q 212.906 50.506 212.6 50.2 A 26.856 26.856 0 0 0 212.444 50.007 Q 211.998 49.46 210.729 47.935 A 1516.584 1516.584 0 0 0 209.95 47 Q 207.7 44.3 204.3 40.15 Q 200.9 36 196.9 31.15 L 188.9 21.45 Q 184.9 16.6 181.55 12.45 A 2409.426 2409.426 0 0 0 181.389 12.25 Q 178.146 8.234 175.95 5.55 A 300.416 300.416 0 0 1 175.342 4.805 Q 173.643 2.714 173.3 2.2 Q 172.8 1.5 172.3 1 A 1.548 1.548 0 0 0 172.136 0.857 Q 171.661 0.5 170.9 0.5 Q 168.2 0.5 166.5 0.45 Q 164.8 0.4 163.4 0.3 A 53.316 53.316 0 0 0 162.998 0.273 Q 162.384 0.234 161.699 0.203 A 91.428 91.428 0 0 0 160.2 0.15 A 366.494 366.494 0 0 1 159.808 0.139 Q 158.094 0.089 155.5 0 A 2.34 2.34 0 0 0 155.36 0.004 Q 154.88 0.033 154.1 0.25 A 1.678 1.678 0 0 0 153.823 0.352 Q 153.2 0.651 153.2 1.4 A 1.155 1.155 0 0 0 153.225 1.639 Q 153.382 2.388 154.55 2.95 A 550.199 550.199 0 0 1 155.013 3.173 Q 155.716 3.512 156.08 3.691 A 35.163 35.163 0 0 1 156.3 3.8 Q 158.535 4.511 160.343 5.454 A 17.251 17.251 0 0 1 163.45 7.5 A 6.68 6.68 0 0 1 165.187 9.772 Q 165.731 10.905 165.983 12.356 A 16.083 16.083 0 0 1 166.2 15.1 Q 166.2 23.3 165.9 31.05 Q 165.6 38.8 165.2 45.05 A 470.88 470.88 0 0 1 165.116 46.341 Q 164.758 51.701 164.4 55.1 Q 164.1 58.2 162.8 60.35 A 6.082 6.082 0 0 1 160.55 62.51 A 8.522 8.522 0 0 1 158.6 63.3 A 25.99 25.99 0 0 0 158.053 63.435 Q 156.765 63.767 156.1 64.1 Q 155.869 64.216 155.704 64.356 A 1.071 1.071 0 0 0 155.3 65.2 A 0.72 0.72 0 0 0 155.488 65.699 Q 155.597 65.82 155.769 65.914 A 1.857 1.857 0 0 0 156.1 66.05 Q 156.65 66.222 157.436 66.276 A 11.235 11.235 0 0 0 158.2 66.3 A 80.264 80.264 0 0 0 159.403 66.292 Q 161.209 66.264 162.2 66.15 A 213.287 213.287 0 0 1 162.56 66.109 Q 163.09 66.048 163.568 65.997 A 122.86 122.86 0 0 1 164.5 65.9 A 13.758 13.758 0 0 1 164.876 65.868 Q 165.817 65.8 167.3 65.8 A 61.387 61.387 0 0 1 168.144 65.805 Q 169.446 65.823 170.25 65.9 A 110.746 110.746 0 0 1 170.551 65.929 Q 171.012 65.974 171.526 66.028 A 191.522 191.522 0 0 1 172.65 66.15 Q 174 66.3 176.7 66.3 Q 177.533 66.3 178.161 66.197 A 4.683 4.683 0 0 0 178.8 66.05 A 2.188 2.188 0 0 0 178.947 65.998 Q 179.6 65.742 179.6 65.2 Q 179.6 64.691 179.178 64.341 A 1.968 1.968 0 0 0 178.8 64.1 Q 178.225 63.813 177.185 63.577 A 18.751 18.751 0 0 0 176.3 63.4 A 12.357 12.357 0 0 1 175.133 63.123 Q 174.081 62.815 173.267 62.346 A 5.398 5.398 0 0 1 171.25 60.4 Q 169.9 58.1 169.9 55.4 A 797.042 797.042 0 0 1 169.906 52.263 A 916.773 916.773 0 0 1 170 42.4 Q 170.1 35.6 170.2 29.2 A 3324.875 3324.875 0 0 1 170.228 27.43 Q 170.314 22.111 170.4 17.9 A 3.746 3.746 0 0 1 170.402 17.772 Q 170.412 17.49 170.463 17.178 A 6.59 6.59 0 0 1 170.6 16.55 Q 170.684 16.237 170.82 16.054 A 0.576 0.576 0 0 1 171.3 15.8 A 1.075 1.075 0 0 1 171.588 15.842 Q 171.737 15.883 171.897 15.965 A 2.608 2.608 0 0 1 172.2 16.15 A 2.589 2.589 0 0 1 172.337 16.253 Q 172.793 16.62 173.4 17.4 Q 173.806 17.888 175.302 19.662 A 3956.005 3956.005 0 0 0 176.05 20.55 A 760.613 760.613 0 0 0 176.101 20.611 Q 178.238 23.145 181.4 26.85 Q 184.6 30.6 188.3 35 L 195.7 43.8 Q 199.4 48.2 202.55 51.95 Q 205.7 55.7 207.75 58.2 A 2257.57 2257.57 0 0 1 208.307 58.88 Q 209.858 60.772 210.2 61.2 Q 211.494 62.979 212.86 64.235 A 13.043 13.043 0 0 0 215.25 66 A 34.215 34.215 0 0 0 216.118 66.476 Q 217.525 67.219 218.302 67.423 Z M 107.1 62.2 L 95.5 32.9 A 11.312 11.312 0 0 0 94.261 30.545 A 10.08 10.08 0 0 0 93.65 29.75 A 5.973 5.973 0 0 0 92.495 28.693 A 4.803 4.803 0 0 0 91 28 Q 90.2 27.7 89.45 27.3 A 1.811 1.811 0 0 1 89.079 27.044 A 1.1 1.1 0 0 1 88.7 26.2 A 0.702 0.702 0 0 1 88.792 25.835 Q 88.947 25.574 89.362 25.47 A 1.842 1.842 0 0 1 89.45 25.45 Q 90.2 25.3 90.7 25.3 A 65.184 65.184 0 0 1 91.635 25.306 Q 92.938 25.325 93.65 25.4 A 27.225 27.225 0 0 1 94.964 25.57 A 23.365 23.365 0 0 1 95.45 25.65 Q 96.3 25.8 98 25.8 Q 99.471 25.8 100.34 25.7 A 7.216 7.216 0 0 0 100.7 25.65 A 28.24 28.24 0 0 1 102.091 25.455 A 32.619 32.619 0 0 1 102.6 25.4 A 14.326 14.326 0 0 1 103.163 25.356 Q 103.807 25.318 104.718 25.305 A 66.685 66.685 0 0 1 105.6 25.3 Q 106.196 25.3 106.89 25.546 A 5.54 5.54 0 0 1 106.9 25.55 Q 107.6 25.8 107.6 26.4 Q 107.6 27.052 106.688 27.661 A 4.767 4.767 0 0 1 106.55 27.75 A 10.024 10.024 0 0 1 105.858 28.144 Q 105.512 28.321 105.198 28.441 A 4.376 4.376 0 0 1 104.7 28.6 A 3.127 3.127 0 0 0 103.945 28.933 A 2.412 2.412 0 0 0 103.2 29.65 Q 102.843 30.186 102.741 31.053 A 6.408 6.408 0 0 0 102.7 31.8 A 3.042 3.042 0 0 0 102.742 32.285 Q 102.782 32.529 102.859 32.804 A 6.965 6.965 0 0 0 103 33.25 A 62.684 62.684 0 0 0 103.144 33.653 Q 103.286 34.046 103.401 34.346 A 19.584 19.584 0 0 0 103.5 34.6 L 111.6 54.6 A 1.613 1.613 0 0 0 111.697 54.834 Q 111.758 54.951 111.832 55.031 A 0.485 0.485 0 0 0 112.2 55.2 A 0.324 0.324 0 0 0 112.421 55.107 Q 112.536 55.002 112.631 54.782 A 2.262 2.262 0 0 0 112.7 54.6 L 119.6 36.3 Q 119.9 35.6 120.15 34.45 A 15.199 15.199 0 0 0 120.282 33.775 Q 120.4 33.081 120.4 32.6 Q 120.4 31.109 120.061 30.326 A 1.93 1.93 0 0 0 119.85 29.95 Q 119.3 29.2 118.4 28.8 A 17.542 17.542 0 0 1 117.765 28.465 Q 117.206 28.156 116.55 27.75 Q 115.5 27.1 115.5 26.4 A 0.765 0.765 0 0 1 115.847 25.746 Q 115.974 25.655 116.149 25.587 A 2.027 2.027 0 0 1 116.25 25.55 A 6.52 6.52 0 0 1 116.694 25.418 Q 117.156 25.3 117.5 25.3 Q 118.9 25.3 120.35 25.55 Q 121.556 25.758 123.695 25.793 A 55.367 55.367 0 0 0 124.6 25.8 Q 126.5 25.8 127.35 25.65 A 216.645 216.645 0 0 1 127.952 25.545 Q 128.189 25.504 128.401 25.467 A 108.785 108.785 0 0 1 128.8 25.4 A 5.739 5.739 0 0 1 129.212 25.348 Q 129.633 25.309 130.211 25.302 A 22.022 22.022 0 0 1 130.5 25.3 Q 130.84 25.3 131.295 25.369 A 9.989 9.989 0 0 1 131.75 25.45 A 1.491 1.491 0 0 1 132.051 25.541 Q 132.487 25.73 132.5 26.173 A 0.936 0.936 0 0 1 132.5 26.2 A 1.114 1.114 0 0 1 132.06 27.096 A 1.897 1.897 0 0 1 131.75 27.3 Q 131 27.7 130.2 28 A 4.231 4.231 0 0 0 129.096 28.488 Q 128.089 29.101 127 30.35 Q 125.3 32.3 124.3 34.7 L 110.7 67.1 A 3.277 3.277 0 0 1 110.662 67.206 Q 110.481 67.688 109.65 69.7 Q 108.711 71.973 107.333 75.319 A 6488.096 6488.096 0 0 0 107.3 75.4 Q 105.9 78.8 104.25 82.7 Q 102.6 86.6 101.1 90.2 A 7.261 7.261 0 0 1 99.887 92.092 A 6.325 6.325 0 0 1 98.5 93.25 A 7.071 7.071 0 0 1 95.309 94.272 A 8.737 8.737 0 0 1 94.6 94.3 Q 92.7 94.3 91.1 93.35 A 3.144 3.144 0 0 1 89.569 91.057 A 5.098 5.098 0 0 1 89.5 90.2 A 6.442 6.442 0 0 1 89.719 88.488 A 5.334 5.334 0 0 1 90.35 87.05 A 2.973 2.973 0 0 1 91.16 86.179 Q 91.847 85.7 92.8 85.7 Q 93.9 85.7 94.95 86 A 9.164 9.164 0 0 0 95.702 86.183 Q 96.3 86.3 96.8 86.3 A 2.435 2.435 0 0 0 97.346 86.241 A 1.913 1.913 0 0 0 97.85 86.05 A 1.933 1.933 0 0 0 98.234 85.764 Q 98.392 85.615 98.544 85.419 A 3.967 3.967 0 0 0 98.7 85.2 Q 99.456 83.963 100.378 82.3 A 137.519 137.519 0 0 0 101.25 80.7 Q 102.7 78 104.25 74.6 A 101.882 101.882 0 0 0 106.67 68.811 A 114.937 114.937 0 0 0 107.2 67.4 Q 107.5 66.5 107.5 65.1 A 11.751 11.751 0 0 0 107.406 63.597 A 10.86 10.86 0 0 0 107.4 63.55 A 8.341 8.341 0 0 0 107.266 62.795 A 6.368 6.368 0 0 0 107.1 62.2 Z M 365.5 67.2 Q 362.4 67.2 359.7 66.25 A 14.609 14.609 0 0 1 356.776 64.857 A 12.334 12.334 0 0 1 355.1 63.6 A 5.177 5.177 0 0 1 354.845 62.886 Q 354.619 62.093 354.461 60.885 A 29.185 29.185 0 0 1 354.35 59.9 Q 354.1 57.3 354 55.6 A 0.864 0.864 0 0 1 354.109 55.155 Q 354.314 54.806 354.906 54.725 A 2.914 2.914 0 0 1 355.3 54.7 Q 355.7 54.7 356.05 54.85 A 0.742 0.742 0 0 1 356.471 55.304 A 1.035 1.035 0 0 1 356.5 55.4 A 18.643 18.643 0 0 0 357.492 58.252 Q 358.713 60.973 360.65 62.4 A 11.997 11.997 0 0 0 362.952 63.75 A 8.541 8.541 0 0 0 366.4 64.5 Q 369.3 64.5 371.35 62.55 A 6.394 6.394 0 0 0 373.398 57.903 A 8.066 8.066 0 0 0 373.4 57.7 Q 373.4 55 371.6 53.05 A 14.501 14.501 0 0 0 370.374 51.886 Q 368.535 50.313 365.3 48.3 A 52.255 52.255 0 0 1 362.933 46.753 Q 361.113 45.488 359.8 44.3 Q 357.928 42.606 356.97 40.832 A 9.347 9.347 0 0 1 356.75 40.4 A 9.825 9.825 0 0 1 355.875 37.267 A 12.141 12.141 0 0 1 355.8 35.9 A 11.77 11.77 0 0 1 356.509 31.784 A 11.005 11.005 0 0 1 357.3 30.1 Q 358.8 27.5 361.8 25.95 Q 364.402 24.606 368.131 24.427 A 24.453 24.453 0 0 1 369.3 24.4 Q 371.563 24.4 373.257 24.741 A 11.624 11.624 0 0 1 374.3 25 Q 376.154 25.556 377.149 26.198 A 4.867 4.867 0 0 1 377.3 26.3 A 5.316 5.316 0 0 1 377.776 27.11 Q 378.202 27.99 378.541 29.307 A 20.552 20.552 0 0 1 378.65 29.75 A 21.312 21.312 0 0 1 379.109 32.452 A 17.306 17.306 0 0 1 379.2 34.2 Q 379.2 34.786 378.5 34.881 A 2.224 2.224 0 0 1 378.2 34.9 Q 377.6 34.9 377.05 34.65 Q 376.636 34.462 376.421 34.189 A 1.092 1.092 0 0 1 376.3 34 A 17.731 17.731 0 0 0 375.234 31.743 Q 374.578 30.588 373.805 29.713 A 9.261 9.261 0 0 0 373.05 28.95 A 6.796 6.796 0 0 0 369.008 27.236 A 8.983 8.983 0 0 0 368.2 27.2 Q 365.7 27.2 363.75 28.7 Q 361.8 30.2 361.8 33.1 Q 361.8 35.4 363.25 37.2 A 9.098 9.098 0 0 0 364.267 38.252 Q 365.445 39.306 367.375 40.508 A 44.024 44.024 0 0 0 368.7 41.3 A 68.132 68.132 0 0 1 372.037 43.319 Q 375.224 45.382 377.152 47.254 A 18.951 18.951 0 0 1 377.35 47.45 A 9.566 9.566 0 0 1 380.033 52.832 A 13.524 13.524 0 0 1 380.2 55 A 11.527 11.527 0 0 1 379.254 59.727 A 11.149 11.149 0 0 1 376.1 63.8 A 14.37 14.37 0 0 1 369.862 66.761 A 20.575 20.575 0 0 1 365.5 67.2 Z M 345.1 40.1 L 324 40.1 A 4.098 4.098 0 0 0 323.316 40.153 Q 322.953 40.215 322.67 40.348 A 1.604 1.604 0 0 0 322.05 40.85 Q 321.631 41.422 321.531 42.838 A 13.79 13.79 0 0 0 321.5 43.8 Q 321.5 48.6 323.6 52.55 Q 325.7 56.5 329.2 58.85 Q 332.7 61.2 336.9 61.2 A 13.569 13.569 0 0 0 340.269 60.795 A 11.701 11.701 0 0 0 342.35 60.05 A 12.894 12.894 0 0 0 346.324 57.12 A 15.003 15.003 0 0 0 346.7 56.7 Q 347.086 56.217 347.286 56.061 A 0.843 0.843 0 0 1 347.3 56.05 Q 347.5 55.9 347.8 55.9 Q 348.522 55.9 348.592 56.714 A 2.155 2.155 0 0 1 348.6 56.9 A 4.811 4.811 0 0 1 348.303 58.51 Q 347.869 59.734 346.8 61.1 Q 345.3 63 343.2 64.4 Q 341.1 65.8 338.6 66.55 Q 336.1 67.3 333.4 67.3 Q 327.9 67.3 323.8 64.6 A 17.334 17.334 0 0 1 318.367 58.798 A 21.62 21.62 0 0 1 317.4 56.95 A 24.28 24.28 0 0 1 315.451 50.342 A 32.123 32.123 0 0 1 315.1 45.5 A 21.935 21.935 0 0 1 316.41 37.863 A 20.521 20.521 0 0 1 317.75 34.95 Q 320.4 30.2 324.8 27.3 Q 329.2 24.4 334.4 24.4 A 17.065 17.065 0 0 1 338.286 24.825 A 13.828 13.828 0 0 1 341.5 26 Q 344.6 27.6 346.35 30.45 A 11.873 11.873 0 0 1 348.039 35.642 A 14.708 14.708 0 0 1 348.1 37 A 4.629 4.629 0 0 1 347.957 38.208 Q 347.524 39.804 345.788 40.054 A 4.84 4.84 0 0 1 345.1 40.1 Z M 289.2 55.3 L 289.2 32.1 A 1.664 1.664 0 0 0 289.142 31.644 A 1.137 1.137 0 0 0 288.6 30.95 A 1.621 1.621 0 0 0 288.227 30.801 Q 287.516 30.6 286 30.6 L 285.4 30.6 A 0.76 0.76 0 0 1 284.892 30.401 Q 284.777 30.301 284.673 30.151 A 2.082 2.082 0 0 1 284.55 29.95 Q 284.2 29.3 284.2 28.6 Q 284.2 28.407 284.481 28.026 A 4.025 4.025 0 0 1 284.5 28 A 20.245 20.245 0 0 1 284.606 27.861 Q 284.766 27.65 284.852 27.552 A 1.096 1.096 0 0 1 284.9 27.5 A 53.135 53.135 0 0 0 287.263 25.75 A 44.316 44.316 0 0 0 288.55 24.7 Q 290.2 23.3 291.55 21.95 A 44.379 44.379 0 0 0 292.499 20.973 Q 293.238 20.188 293.8 19.5 L 294.65 18.65 A 1.156 1.156 0 0 1 295.485 18.3 A 1.423 1.423 0 0 1 295.5 18.3 Q 296 18.3 296.45 18.5 A 0.584 0.584 0 0 1 296.794 18.927 Q 296.839 19.125 296.8 19.4 L 296.3 23.9 Q 296.2 25 296.8 25.4 Q 297.4 25.8 298.7 25.8 L 310.1 25.8 A 0.523 0.523 0 0 1 310.434 25.927 Q 310.633 26.087 310.8 26.45 A 3.129 3.129 0 0 1 311.034 27.21 Q 311.1 27.577 311.1 28 Q 311.1 28.9 310.8 29.75 A 3.289 3.289 0 0 1 310.674 30.06 Q 310.419 30.6 310.1 30.6 L 300.2 30.6 A 24.582 24.582 0 0 0 299.19 30.619 Q 297.536 30.688 296.95 31 Q 296.211 31.394 296.2 33.345 A 10.506 10.506 0 0 0 296.2 33.4 L 296.2 53.1 A 15.214 15.214 0 0 0 296.392 55.596 Q 296.771 57.873 297.9 59.4 A 5.521 5.521 0 0 0 301.93 61.655 A 8.089 8.089 0 0 0 302.8 61.7 A 30.226 30.226 0 0 0 304.447 61.658 Q 306.188 61.563 307.3 61.25 Q 308.9 60.8 310.2 59.9 A 0.902 0.902 0 0 1 310.322 59.797 Q 310.395 59.746 310.468 59.722 A 0.419 0.419 0 0 1 310.6 59.7 A 0.536 0.536 0 0 1 310.874 59.769 Q 310.987 59.834 311.065 59.961 A 0.918 0.918 0 0 1 311.15 60.15 A 2.983 2.983 0 0 1 311.3 61.096 A 3.177 3.177 0 0 1 311.3 61.1 A 0.621 0.621 0 0 1 311.221 61.367 Q 310.949 61.909 309.737 63.02 A 25.97 25.97 0 0 1 309.65 63.1 Q 308.226 64.395 306.056 65.541 A 26.562 26.562 0 0 1 305.35 65.9 Q 302.7 67.2 299.6 67.2 A 12.845 12.845 0 0 1 296.388 66.821 A 8.887 8.887 0 0 1 291.95 64.2 A 9.488 9.488 0 0 1 289.976 60.75 Q 289.491 59.303 289.309 57.536 A 21.856 21.856 0 0 1 289.2 55.3 Z M 254.6 67.2 Q 249 67.2 244.5 64.6 Q 240 62 237.35 57.45 A 19.617 19.617 0 0 1 234.778 49.057 A 24.07 24.07 0 0 1 234.7 47.1 Q 234.7 42.9 236.35 38.9 Q 238 34.9 241 31.6 Q 244 28.3 248 26.35 Q 252 24.4 256.6 24.4 A 20.615 20.615 0 0 1 263.796 25.635 A 19.16 19.16 0 0 1 267.05 27.2 Q 271.7 30 274.45 34.55 Q 277.2 39.1 277.2 44.5 Q 277.2 50.3 274.65 55.5 Q 272.1 60.7 267.1 63.95 Q 262.1 67.2 254.6 67.2 Z M 256.7 64.2 A 15.266 15.266 0 0 0 260.21 63.811 A 12.627 12.627 0 0 0 262.8 62.9 Q 265.5 61.6 267 58.7 A 13.505 13.505 0 0 0 267.988 56.194 Q 268.397 54.776 268.6 53.1 Q 269 49.8 269 46.9 Q 269 42.1 267.25 37.65 A 20.774 20.774 0 0 0 264.843 33.157 A 17.429 17.429 0 0 0 262.35 30.35 Q 259.2 27.5 254.9 27.5 A 14.725 14.725 0 0 0 252.205 27.736 A 11.634 11.634 0 0 0 250.05 28.35 A 8.173 8.173 0 0 0 247.803 29.713 Q 246.916 30.458 246.1 31.5 A 12.258 12.258 0 0 0 243.948 35.662 A 15.529 15.529 0 0 0 243.5 37.6 Q 242.9 41.2 242.9 44.8 Q 242.9 49.7 244.7 54.15 A 21.586 21.586 0 0 0 246.96 58.385 A 17.465 17.465 0 0 0 249.6 61.4 Q 252.7 64.2 256.7 64.2 Z M 324.2 37 L 333.3 37 A 97.246 97.246 0 0 0 335.002 36.986 Q 336.338 36.963 337.4 36.9 Q 339.1 36.8 340.7 36.5 Q 341.128 36.415 341.299 36 A 1.255 1.255 0 0 0 341.35 35.85 A 3.378 3.378 0 0 0 341.429 35.462 Q 341.49 35.054 341.499 34.489 A 12.482 12.482 0 0 0 341.5 34.3 A 5.922 5.922 0 0 0 339.685 30.011 A 8.564 8.564 0 0 0 338.95 29.35 Q 336.4 27.3 332.9 27.3 A 8.396 8.396 0 0 0 329.738 27.938 A 10.902 10.902 0 0 0 328.3 28.65 Q 326 30 324.5 32 Q 323.087 33.884 323.005 35.769 A 5.338 5.338 0 0 0 323 36 Q 323 37 324.2 37 Z" vector-effect="non-scaling-stroke"/></g></svg>